# xmcd
# 
# Track frame offsets:
#     150
#     24367
#     40045
#     62407
#     86310
#     114990
#     134325
#     162572
#     182390
#     203645
#     239462
#     263130
#     283475
# 
# Disc length: 4711
# 
# Revision: 3
# Processed by: cddbd v1.5.2PL0 Copyright (c) Steve Scherf et al.
# Submitted via: fre:ac v1.1beta1pre5
# 
DISCID=aa12650d
DTITLE=Ronnie Earl and The Broadcasters - Blues And Forgiveness - Live In Europe
DYEAR=1993
DGENRE=Blues
TTITLE0=San-Ho-Zay (live)
TTITLE1=Robert Nighthawk Stomp (live)
TTITLE2=Thank You Mr. T-Bone (live)
TTITLE3=Akos (live)
TTITLE4=Contrition (live)
TTITLE5=Moanin' (live)
TTITLE6=Blues For The West Side (live)
TTITLE7=The Stumble (live)
TTITLE8=Szeren (live)
TTITLE9=Blues For Henry (live)
TTITLE10=Not Now Kovich (live)
TTITLE11=Backstroke (live)
TTITLE12=Rego Park Blues (live)
EXTD=
EXTT0=
EXTT1=
EXTT2=
EXTT3=
EXTT4=
EXTT5=
EXTT6=
EXTT7=
EXTT8=
EXTT9=
EXTT10=
EXTT11=
EXTT12=
PLAYORDER=
